<svg xmlns="http://www.w3.org/2000/svg" width="320" height="120" viewBox="0 0 320 120">
  <defs>
    <linearGradient id="runnerGradient" x1="0%" y1="0%" x2="100%" y2="100%">
      <stop offset="0%" stop-color="#C7A46A" />
      <stop offset="100%" stop-color="#D8B97A" />
    </linearGradient>
    <style>
      .headline { font-family: 'Helvetica Neue', Arial, sans-serif; font-weight: 700; letter-spacing: 6px; }
      .subline { font-family: 'Helvetica Neue', Arial, sans-serif; font-weight: 400; letter-spacing: 3px; }
      .arabic { font-family: 'Noto Naskh Arabic', 'Scheherazade', serif; font-weight: 600; }
    </style>
  </defs>
  <rect width="320" height="120" fill="none"/>
  <path d="M59.2,18.5c3.2,2.6,5.2,6.7,4.7,11-0.9,7.2-8.5,14.7-10.9,17.2l6.7,3.6 15.6-5.9 1.8,4.7-13.2,5 9.2,13.5-4.7,3.4-11-16.2-9.2,3.4 5.9,16.4-5.6,1.9-7.6-20c-1-2.5.1-5.4,2.6-6.5l12-4.6-6.8-3.7c-3.7-2-5.2-6.6-3.5-10.3l4.5-9.8 3.8,1.8-3.5,7.6c-0.4,0.8-0.1,1.8,0.7,2.2 0.6,0.3,1.3,0.3,1.8-0.1l4.4-3.4-1.2-8.2 5.3,1.2 0.6,3.1 6.2,3.8 0.9-3.3 4.9,1.3-2.2,8.3-4.8-1.2-4.3-2.7-2.6,2" fill="url(#runnerGradient)"/>
  <text x="95" y="55" font-size="48" fill="#173468" class="headline">EGTIAZ</text>
  <text x="95" y="80" font-size="16" fill="#173468" class="subline">TYPING &amp; DOCUMENT CLEARING</text>
  <text x="95" y="101" font-size="18" fill="#C7A46A" class="arabic">اجتياز لإنجاز المعاملات الحكومية</text>
</svg>

